<svg xmlns="http://www.w3.org/2000/svg" viewBox="0 0 64 64" fill="none">
  <defs>
    <linearGradient id="lg1" x1="0%" y1="0%" x2="100%" y2="100%">
      <stop offset="0%" stop-color="#00D4AA"/>
      <stop offset="100%" stop-color="#00A3FF"/>
    </linearGradient>
    <radialGradient id="rg1" cx="50%" cy="50%" r="50%">
      <stop offset="0%" stop-color="#00D4AA" stop-opacity="0.2"/>
      <stop offset="100%" stop-color="#00D4AA" stop-opacity="0"/>
    </radialGradient>
  </defs>
  <!-- Ambient glow -->
  <circle cx="32" cy="32" r="28" fill="url(#rg1)"/>
  <!-- Outer hexagon -->
  <path d="M32 5L53.8564 18.5V45.5L32 59L10.1436 45.5V18.5L32 5Z" stroke="url(#lg1)" stroke-width="2" fill="none"/>
  <!-- Inner hexagon -->
  <path d="M32 15L44.8564 23.5V40.5L32 49L19.1436 40.5V23.5L32 15Z" fill="url(#lg1)" fill-opacity="0.1" stroke="url(#lg1)" stroke-width="1.5"/>
  <!-- Center node -->
  <circle cx="32" cy="32" r="5" fill="url(#lg1)"/>
  <!-- Connection spokes -->
  <line x1="32" y1="27" x2="32" y2="15" stroke="url(#lg1)" stroke-width="1.5" stroke-linecap="round"/>
  <line x1="36.2" y1="29" x2="44.9" y2="23.5" stroke="url(#lg1)" stroke-width="1.5" stroke-linecap="round"/>
  <line x1="36.2" y1="35" x2="44.9" y2="40.5" stroke="url(#lg1)" stroke-width="1.5" stroke-linecap="round"/>
  <line x1="32" y1="37" x2="32" y2="49" stroke="url(#lg1)" stroke-width="1.5" stroke-linecap="round"/>
  <line x1="27.8" y1="35" x2="19.1" y2="40.5" stroke="url(#lg1)" stroke-width="1.5" stroke-linecap="round"/>
  <line x1="27.8" y1="29" x2="19.1" y2="23.5" stroke="url(#lg1)" stroke-width="1.5" stroke-linecap="round"/>
  <!-- Node dots -->
  <circle cx="32" cy="15" r="2.5" fill="#00A3FF"/>
  <circle cx="44.9" cy="23.5" r="2.5" fill="#00A3FF"/>
  <circle cx="44.9" cy="40.5" r="2.5" fill="#00A3FF"/>
  <circle cx="32" cy="49" r="2.5" fill="#00A3FF"/>
  <circle cx="19.1" cy="40.5" r="2.5" fill="#00D4AA"/>
  <circle cx="19.1" cy="23.5" r="2.5" fill="#00D4AA"/>
  <!-- Inner glow ring -->
  <circle cx="32" cy="32" r="3.5" fill="#00D4AA" opacity="0.5"/>
</svg>
