<svg xmlns="http://www.w3.org/2000/svg" viewBox="0 0 64 64" fill="none">
  <!-- Outer hexagonal ring -->
  <path d="M32 4L54.3923 18V46L32 60L9.6077 46V18L32 4Z" stroke="#6366F1" stroke-width="2.5" fill="none"/>
  <!-- Inner hexagon -->
  <path d="M32 16L44.3923 24V40L32 48L19.6077 40V24L32 16Z" fill="#6366F1" fill-opacity="0.15" stroke="#6366F1" stroke-width="1.5"/>
  <!-- Center node -->
  <circle cx="32" cy="32" r="5" fill="#6366F1"/>
  <!-- API connection lines -->
  <line x1="32" y1="27" x2="32" y2="16" stroke="#6366F1" stroke-width="1.5" stroke-linecap="round"/>
  <line x1="36.5" y1="29.5" x2="44.4" y2="24" stroke="#6366F1" stroke-width="1.5" stroke-linecap="round"/>
  <line x1="36.5" y1="34.5" x2="44.4" y2="40" stroke="#6366F1" stroke-width="1.5" stroke-linecap="round"/>
  <line x1="32" y1="37" x2="32" y2="48" stroke="#6366F1" stroke-width="1.5" stroke-linecap="round"/>
  <line x1="27.5" y1="34.5" x2="19.6" y2="40" stroke="#6366F1" stroke-width="1.5" stroke-linecap="round"/>
  <line x1="27.5" y1="29.5" x2="19.6" y2="24" stroke="#6366F1" stroke-width="1.5" stroke-linecap="round"/>
  <!-- Corner accent dots -->
  <circle cx="32" cy="16" r="2.5" fill="#818CF8"/>
  <circle cx="44.4" cy="24" r="2.5" fill="#818CF8"/>
  <circle cx="44.4" cy="40" r="2.5" fill="#818CF8"/>
  <circle cx="32" cy="48" r="2.5" fill="#818CF8"/>
  <circle cx="19.6" cy="40" r="2.5" fill="#818CF8"/>
  <circle cx="19.6" cy="24" r="2.5" fill="#818CF8"/>
  <!-- Center glow -->
  <circle cx="32" cy="32" r="3" fill="#A5B4FC"/>
</svg>
