<svg width="42" height="42" xmlns="http://www.w3.org/2000/svg" viewBox="0 0 64 64" fill="none">
  <defs>
    <linearGradient id="plg" x1="0%" y1="0%" x2="100%" y2="100%">
      <stop offset="0%" stop-color="#00D4AA"/>
      <stop offset="100%" stop-color="#00A3FF"/>
    </linearGradient>
  </defs>
  <rect width="64" height="64" rx="14" fill="#060B14"/>
  <path d="M32 8L52 20V44L32 56L12 44V20L32 8Z" stroke="url(#plg)" stroke-width="2" fill="none"/>
  <path d="M32 18L44 25V39L32 46L20 39V25L32 18Z" fill="url(#plg)" fill-opacity="0.15" stroke="url(#plg)" stroke-width="1.5"/>
  <circle cx="32" cy="32" r="4" fill="url(#plg)"/>
  <line x1="32" y1="28" x2="32" y2="18" stroke="url(#plg)" stroke-width="1.5" stroke-linecap="round"/>
  <line x1="35.5" y1="30" x2="44" y2="25" stroke="url(#plg)" stroke-width="1.5" stroke-linecap="round"/>
  <line x1="35.5" y1="34" x2="44" y2="39" stroke="url(#plg)" stroke-width="1.5" stroke-linecap="round"/>
  <line x1="32" y1="36" x2="32" y2="46" stroke="url(#plg)" stroke-width="1.5" stroke-linecap="round"/>
  <line x1="28.5" y1="34" x2="20" y2="39" stroke="url(#plg)" stroke-width="1.5" stroke-linecap="round"/>
  <line x1="28.5" y1="30" x2="20" y2="25" stroke="url(#plg)" stroke-width="1.5" stroke-linecap="round"/>
  <circle cx="32" cy="18" r="2" fill="#00A3FF"/>
  <circle cx="44" cy="25" r="2" fill="#00A3FF"/>
  <circle cx="44" cy="39" r="2" fill="#00A3FF"/>
  <circle cx="32" cy="46" r="2" fill="#00D4AA"/>
  <circle cx="20" cy="39" r="2" fill="#00D4AA"/>
  <circle cx="20" cy="25" r="2" fill="#00D4AA"/>
</svg>
